<?xml version="1.0" standalone="no"?><!DOCTYPE svg PUBLIC "-//W3C//DTD SVG 1.0//EN" "http://www.w3.org/TR/2001/REC-SVG-20010904/DTD/svg10.dtd"><svg style="position: absolute;" xmlns="http://www.w3.org/2000/svg" xmlns:xlink="http://www.w3.org/1999/xlink"><symbol viewBox="0 0 20 12" id="burger" xmlns="http://www.w3.org/2000/svg"><path d="M0 0h20v1.714H0V0zM0 5.143h20v1.714H0V5.143zM0 10.286h20V12H0v-1.714z"/></symbol><symbol viewBox="0 0 16 16" id="close" xmlns="http://www.w3.org/2000/svg"><path d="M0 14.142L14.142 0l1.212 1.212L1.212 15.354 0 14.142z" fill="#fff"/><path d="M1.313.101l14.142 14.142-1.212 1.212L.101 1.313 1.313.101z" fill="#fff"/></symbol><symbol viewBox="0 0 20 21" id="Polygon" xmlns="http://www.w3.org/2000/svg"><path d="M17.57 7.71c1.994 1.15 1.994 4.028 0 5.18L5.01 20.14c-1.994 1.151-4.487-.288-4.487-2.59V3.047C.523.745 3.016-.694 5.01.457L17.57 7.71z" fill="#fff"/></symbol><symbol viewBox="0 0 194 285" id="1_1" xmlns="http://www.w3.org/2000/svg"/><symbol viewBox="0 0 480.153 480.153" id="digital-adv" xmlns="http://www.w3.org/2000/svg"><path d="M455.033 182.608a111.201 111.201 0 0 0 23.904-86.792C469.968 34.614 413.084-7.73 351.881 1.239a112 112 0 0 0-70.368 39.801 57.37 57.37 0 0 1-59.064 20.296 143.625 143.625 0 0 0-56.8-4.064c-64.287 8.68-115.018 58.948-124.288 123.152a143.117 143.117 0 0 0 13.776 83.736C24.243 264.606-.44 290.012.006 320.905c.401 27.801 21.159 51.089 48.731 54.671l8.632 88.536c0 8.837 7.163 16 16 16h46.68a15.999 15.999 0 0 0 12.144-5.6 16.353 16.353 0 0 0 3.52-13.6l-21.392-84.8h4c8.848.048 17.684.684 26.448 1.904 28.713 62.248 91.009 102.109 159.56 102.096 5.28 0 10.613-.237 16-.712 84.871-8.379 151.751-75.995 159.2-160.952a174.674 174.674 0 0 0-26.184-107.432 24.408 24.408 0 0 1 1.688-28.408zM48.049 359.312c-21.65-4.396-35.636-25.51-31.24-47.16a40 40 0 0 1 31.24-31.24v78.4zm72 104.8l-46.72-.8-8.48-87.2h32.952l22.248 88zm-56-104v-80h16v80h-16zm54.248 0H96.049v-80h22.248a215.46 215.46 0 0 0 68.304-11.088l37.448-12.48V383.68l-37.448-12.48a215.488 215.488 0 0 0-68.304-11.088zm345.232-42.952c-7.067 87.941-84.085 153.502-172.026 146.436-53.432-4.294-101.148-35.1-127.054-82.028 5.744 1.368 11.456 2.928 17.096 4.8l88 29.328c.807.27 1.653.41 2.504.416a8 8 0 0 0 8-8v-40c17.673 0 32-14.327 32-32v-32c0-17.673-14.327-32-32-32v-40a8 8 0 0 0-10.528-7.592l-88 29.328a199.74 199.74 0 0 1-63.224 10.264H73.369a127.116 127.116 0 0 1-16.152-81.6C66.885 112.529 131.455 63.633 201.438 73.3c5.634.778 11.21 1.932 16.691 3.452 28.079 7.201 57.765-2.813 75.744-25.552C327.366 10.137 387.805 4 428.869 37.492s47.201 93.932 13.708 134.996c-10.919 13.443-12.061 32.348-2.84 47.008a158.812 158.812 0 0 1 23.792 97.664zm-223.48 71.856V251.208l24-8v153.808l-24-8zm40-36.904v-64c8.837 0 16 7.163 16 16v32c0 8.837-7.164 16-16 16z"/><path d="M112.049 328.112h32v16h-32zM112.049 296.112h32v16h-32zM406.707 107.674a8.006 8.006 0 0 0-2.218-2.218l-48-32a8 8 0 0 0-12.44 6.656v64a8 8 0 0 0 12.44 6.656l48-32a8 8 0 0 0 2.218-11.094zm-46.658 21.486V95.064l25.6 17.048-25.6 17.048z"/><path d="M368.049 40.112c-39.764 0-72 32.235-72 72 .044 39.746 32.254 71.956 72 72 39.765 0 72-32.236 72-72s-32.236-72-72-72zm0 128c-30.928 0-56-25.072-56-56 .035-30.913 25.087-55.965 56-56 30.928 0 56 25.072 56 56s-25.072 56-56 56zM208.049 144.112h-8a8 8 0 0 1-8-8v-24c0-13.255-10.745-24-24-24s-24 10.745-24 24v24a8 8 0 0 1-8 8 8 8 0 0 0-8-8h-32a8 8 0 0 0-8 8v88a8 8 0 0 0 8 8h32a8 8 0 0 0 8-8h72c13.255 0 24-10.745 24-24v-40c0-13.254-10.745-24-24-24zm-88 80h-16v-72h16v72zm96-16a8 8 0 0 1-8 8h-72v-56c13.255 0 24-10.745 24-24v-24a8 8 0 0 1 16 0v24c0 13.255 10.745 24 24 24h8a8 8 0 0 1 8 8v40zM441.009 290.528l-3.408-3.424c-8.106-8.053-20.755-9.303-30.28-2.992l-8.648 5.768-8.648-5.768c-9.524-6.317-22.177-5.067-30.28 2.992l-3.424 3.424c-9.369 9.372-9.369 24.564 0 33.936l36.688 36.68a8 8 0 0 0 11.312 0l36.688-36.68c9.369-9.372 9.369-24.564 0-33.936zm-11.298 22.618l-.006.006-31.032 31.024-31.024-30.992a8 8 0 0 1 0-11.312l3.416-3.416a8 8 0 0 1 10.096-1l13.08 8.72a7.999 7.999 0 0 0 8.88 0l13.088-8.72a8 8 0 0 1 10.088.992v-.032l3.408 3.416a8 8 0 0 1 .006 11.314zM304.3 246.178l8.008-31.998 15.514 3.883-8.009 31.998zM324.464 256.954l31.998-16 7.155 14.311-31.998 16zM304.257 402.045l15.514-3.878 7.999 31.998-15.514 3.878zM324.46 391.26l7.155-14.31 31.998 15.998-7.155 14.31z"/><path d="M8.049 216.112h16c0-108.56 64.376-176 168-176v-16c-113.496 0-184 73.6-184 192z"/></symbol><symbol viewBox="0 0 59 59" id="blueprint" xmlns="http://www.w3.org/2000/svg"><path d="M14 7c0-3.859-3.141-7-7-7S0 3.141 0 7v45h.003L0 52.06A6.948 6.948 0 0 0 6.94 59H59V7H14zM2 7a5.007 5.007 0 0 1 4.02-4.901c.052.504.463.901.98.901s.928-.397.98-.901A5.007 5.007 0 0 1 12 7v40.105a6.98 6.98 0 0 0-5.719-2.068c-.106.011-.21.032-.315.048-.128.019-.257.034-.383.06-.138.028-.271.068-.405.104-.088.024-.178.042-.265.069a7.03 7.03 0 0 0-.491.181c-.049.02-.101.035-.15.056-.199.084-.392.18-.582.282l-.025.012A7.043 7.043 0 0 0 2 47.105V7zm55 50H6.94C4.216 57 2 54.784 2 52c0-2.757 2.243-5 5-5s5 2.243 5 5h2V9h43v48z"/><path d="M46.017 21.001a1.003 1.003 0 0 0 1.394-.24 1.002 1.002 0 0 0-.24-1.395l-1.634-1.153a1.004 1.004 0 0 0-1.395.24 1.002 1.002 0 0 0 .24 1.395l1.635 1.153zM50.92 24.461a.998.998 0 0 0 1.393-.241 1.001 1.001 0 0 0-.241-1.394l-1.635-1.153a1.001 1.001 0 0 0-1.153 1.635l1.636 1.153zM37 41a1 1 0 0 0 1 1h2a1 1 0 1 0 0-2h-2a1 1 0 0 0-1 1zM51 27.383v2a1 1 0 1 0 2 0v-2a1 1 0 1 0-2 0zM41.115 17.541a1.003 1.003 0 0 0 1.394-.24 1.002 1.002 0 0 0-.24-1.395l-1.634-1.153a1.004 1.004 0 0 0-1.395.24 1.002 1.002 0 0 0 .24 1.395l1.635 1.153zM43 41a1 1 0 0 0 1 1h2a1 1 0 1 0 0-2h-2a1 1 0 0 0-1 1zM29 41a1 1 0 0 0-1-1h-2a1 1 0 1 0 0 2h2a1 1 0 0 0 1-1zM52 36.383a1 1 0 0 0 1-1v-2a1 1 0 1 0-2 0v2a1 1 0 0 0 1 1zM36.213 14.081a1.003 1.003 0 0 0 1.394-.24 1.002 1.002 0 0 0-.24-1.395l-1.634-1.153a1.006 1.006 0 0 0-1.395.24 1.002 1.002 0 0 0 .24 1.395l1.635 1.153zM51 40h-1a1 1 0 1 0 0 2h3v-2.617a1 1 0 1 0-2 0V40zM20 42h2a1 1 0 1 0 0-2h-2a1 1 0 1 0 0 2zM18 28a1 1 0 0 0 1-1v-2a1 1 0 1 0-2 0v2a1 1 0 0 0 1 1zM20.452 23.27c.199 0 .4-.06.576-.183l1.634-1.153a1.001 1.001 0 0 0-1.155-1.635l-1.634 1.153a1.001 1.001 0 0 0 .579 1.818zM25.354 19.81c.199 0 .4-.06.576-.183l1.634-1.153a1.001 1.001 0 0 0-1.155-1.635l-1.634 1.153a1.001 1.001 0 0 0 .579 1.818zM18 34a1 1 0 0 0 1-1v-2a1 1 0 1 0-2 0v2a1 1 0 0 0 1 1zM30.256 16.35c.199 0 .4-.06.576-.183l1.634-1.153a1.001 1.001 0 0 0-1.155-1.635l-1.634 1.153a1.001 1.001 0 0 0 .579 1.818zM31 41a1 1 0 0 0 1 1h2a1 1 0 1 0 0-2h-2a1 1 0 0 0-1 1zM18 40a1 1 0 0 0 1-1v-2a1 1 0 1 0-2 0v2a1 1 0 0 0 1 1zM41 54h13v-8H41v8zm2-6h9v4h-9v-4zM22 30v2a1 1 0 1 0 2 0v-2a1 1 0 1 0-2 0zM31 27a1 1 0 0 0-1 1v2a1 1 0 1 0 2 0v-2a1 1 0 0 0-1-1zM25 29h2a1 1 0 1 0 0-2h-2a1 1 0 1 0 0 2zM26 36a1 1 0 0 0-1-1h-2a1 1 0 1 0 0 2h2a1 1 0 0 0 1-1zM29 37h2a1 1 0 0 0 1-1v-2a1 1 0 1 0-2 0v1h-1a1 1 0 1 0 0 2zM40 28a1 1 0 0 0 1 1h2a1 1 0 1 0 0-2h-2a1 1 0 0 0-1 1zM46 28v2a1 1 0 1 0 2 0v-2a1 1 0 1 0-2 0zM47 37a1 1 0 0 0 1-1v-2a1 1 0 1 0-2 0v1h-1a1 1 0 1 0 0 2h2zM39 33a1 1 0 0 0 1-1v-2a1 1 0 1 0-2 0v2a1 1 0 0 0 1 1zM39 37h2a1 1 0 1 0 0-2h-2a1 1 0 1 0 0 2zM38 46h-5a1 1 0 1 0 0 2h5a1 1 0 1 0 0-2zM38 49h-7a1 1 0 1 0 0 2h7a1 1 0 1 0 0-2zM38 52H28a1 1 0 1 0 0 2h10a1 1 0 1 0 0-2z"/><circle cx="4" cy="5" r="1"/><circle cx="10" cy="5" r="1"/><circle cx="7" cy="8" r="1"/><circle cx="4" cy="11" r="1"/><circle cx="10" cy="11" r="1"/><circle cx="4" cy="17" r="1"/><circle cx="10" cy="17" r="1"/><circle cx="7" cy="14" r="1"/><circle cx="7" cy="20" r="1"/><circle cx="4" cy="23" r="1"/><circle cx="10" cy="23" r="1"/><circle cx="4" cy="29" r="1"/><circle cx="10" cy="29" r="1"/><circle cx="7" cy="26" r="1"/><circle cx="7" cy="32" r="1"/><circle cx="4" cy="35" r="1"/><circle cx="10" cy="35" r="1"/><circle cx="4" cy="41" r="1"/><circle cx="10" cy="41" r="1"/><circle cx="7" cy="38" r="1"/><circle cx="7" cy="44" r="1"/></symbol><symbol viewBox="5.5 -3.5 64 64" id="by" xmlns="http://www.w3.org/2000/svg"><circle fill="#FFF" cx="37.637" cy="28.806" r="28.276"/><path d="M37.443-3.5c8.988 0 16.57 3.085 22.742 9.257C66.393 11.967 69.5 19.548 69.5 28.5c0 8.991-3.049 16.476-9.145 22.456-6.476 6.363-14.113 9.544-22.912 9.544-8.649 0-16.153-3.144-22.514-9.43C8.644 44.784 5.5 37.262 5.5 28.5c0-8.761 3.144-16.342 9.429-22.742C21.101-.415 28.604-3.5 37.443-3.5zm.114 5.772c-7.276 0-13.428 2.553-18.457 7.657-5.22 5.334-7.829 11.525-7.829 18.572 0 7.086 2.59 13.22 7.77 18.398 5.181 5.182 11.352 7.771 18.514 7.771 7.123 0 13.334-2.607 18.629-7.828 5.029-4.838 7.543-10.952 7.543-18.343 0-7.276-2.553-13.465-7.656-18.571-5.104-5.104-11.276-7.656-18.514-7.656zm8.572 18.285v13.085h-3.656v15.542h-9.944V33.643h-3.656V20.557c0-.572.2-1.057.599-1.457.401-.399.887-.6 1.457-.6h13.144c.533 0 1.01.2 1.428.6.417.4.628.886.628 1.457zm-13.087-8.228c0-3.008 1.485-4.514 4.458-4.514s4.457 1.504 4.457 4.514c0 2.971-1.486 4.457-4.457 4.457s-4.458-1.486-4.458-4.457z"/></symbol><symbol viewBox="0 0 487.969 487.969" id="caduceus" xmlns="http://www.w3.org/2000/svg"><ellipse cx="171.856" cy="215.848" rx="8" ry="8.12"/><path d="M475.984 32.031H358.406c-43.938 0-60.766 27.82-73.062 48.141-6.55 10.832-11.382 18.123-17.359 21.538V71.799c9.658-7.309 16-18.782 16-31.799 0-22.054-17.938-40-40-40s-40 17.946-40 40c0 13.017 6.342 24.49 16 31.799v29.943c-6.028-3.407-10.864-10.73-17.422-21.61-12.234-20.297-29.016-48.102-73-48.102H11.984c0 26.526 6.985 48.289 34.328 59.062l-20.782 8.61c12.805 30.901 33.341 43.293 57.547 41.922L72.671 152.03c27.251 27.251 59.665 27.006 82.25 11.203 14.328 15.43 41.062 16.313 56.547 1.875 2.483 2.766 5.414 5.071 8.516 7.132v105.205c-21.957-7.43-35.85-13.35-42.172-20.735 3.672-1.484 7.531-3.367 11.39-5.859 20-12.867 28.5-37.531 18.547-53.859-6.969-11.446-20.953-15.836-36.484-11.461-22.641 6.359-45.547 29.953-45.547 62.734 0 31.957 19.863 50.97 48.31 65.034-16.474 12.298-25.919 28.841-25.919 47.466 0 24.647 16.134 45.309 44.297 57.911-8.814 9.536-13.797 20.806-13.797 32.682 0 9.774 1.375 21.258 17.734 33.89 2.25 1.758 5.031 2.718 7.828 2.718 6.969 0 12.625-5.664 12.625-12.633 0-2.218-.61-4.492-1.703-6.344-3.438-5.922-2.969-8.961-2.328-10.726.97-2.645 3.49-5.266 7.218-7.911V456c0 13.234 10.766 24 24 24s24-10.766 24-24v-5.517c3.663 2.601 6.265 5.183 7.218 7.782.641 1.766 1.11 4.805-2.297 10.687a12.79 12.79 0 0 0-1.75 6.383c0 6.969 5.672 12.633 12.641 12.633 2.75 0 5.516-.946 7.797-2.695 16.39-12.672 17.766-24.149 17.766-33.914 0-11.862-5.149-23.026-13.982-32.546 28.302-12.608 44.482-33.346 44.482-58.048 0-18.593-9.341-35.147-25.808-47.429 28.425-14.068 48.198-33.123 48.198-65.071 0-32.782-22.906-56.375-45.547-62.734-15.5-4.367-29.516.023-36.484 11.461-9.953 16.328-1.469 40.992 18.531 53.859 3.875 2.492 7.734 4.375 11.406 5.859-6.321 7.386-20.214 13.306-42.17 20.736V172.395c3.111-2.082 6.056-4.421 8.562-7.247 7.39 6.883 17.156 10.883 27.359 10.883 11.141 0 21.672-4.75 29.141-12.797 21.268 14.882 53.855 17.192 82.25-11.203l-10.406-10.406c23.802 1.161 44.463-10.348 57.547-41.922l-20.782-8.61c26.912-10.603 34.329-32.302 34.329-59.062zm-263.39 102.875l-7.5 12.828c-4.375 7.469-12.625 12.297-21.031 12.297-14.905 0-19.267-9.604-25.953-21.461l-7.454 7.446c-13.844 13.859-38.375 15.664-54.718 5.367l45.844-45.837c4.34 2.898 9.041 5.278 14.344 6.322 2.933 14.893 14.082 26.758 28.474 30.99l9.077-15.722c-11.795-1.178-21.067-11.034-21.067-23.134 0-4.766-3.859-8.633-8.625-8.633-10.057 0-18.574-6.411-21.864-15.336h-17.898c2.014 9.978 7.938 18.317 15.798 24.204l-44.38 18.382c-18.246 7.564-38.313.562-48.469-14.562l67.656-28.023H74.61c-29.516 0-42.703-15.851-45.859-32h100.813c34.953 0 47.328 20.523 59.297 40.367 8.025 13.301 16.331 26.906 31.125 30.571v30.456c-2.438-4.263-5.211-10.102-7.392-14.522zm-70.875 113.36c0-24.562 17.453-42.718 33.875-47.328 1.703-.484 4.422-1.086 7.344-1.086 4.062 0 8.531 1.172 11.156 5.469 4.828 7.922.062 23.328-13.562 32.086-5.531 3.562-11.125 5.531-16.359 7.133l-7.359 2.25 1.969 7.453c4.902 18.468 22.921 27.248 59.221 39.392a2382.34 2382.34 0 0 0-16.69 5.46c-3.764 1.28-7.299 2.755-10.711 4.323-28.96-12.408-48.884-28.184-48.884-55.152zM251.984 456c0 4.414-3.594 8-8 8-4.406 0-8-3.586-8-8v-14.296c4.747-2.131 10.195-4.323 16-6.563V456zm39.656 5.461c.078-3-.39-5.906-1.422-8.695-2.97-8.12-10.753-14.571-22.234-20.74v-2.87c3.615-1.313 7.373-2.664 11.192-4.03 9.052 7.477 14.182 16.536 14.182 26.234.002 3.07.002 6.358-1.718 10.101zm32.22-100.695c0 28.305-29.562 41.946-42.282 46.5l-4.156 1.492c-45.61 16.305-73.141 26.156-79.672 44.008a22.744 22.744 0 0 0-1.406 8.797c-1.734-3.703-1.734-6.984-1.734-10.203 0-14.008 10.359-26.844 28.344-35.172l54.375-24.242c17.875-7.844 30.531-14.672 30.531-31.18 0-10.914-12.031-22.054-30.703-28.398-2.2-.73-4.376-1.382-6.565-2.074 8.968-2.918 17.654-5.953 25.911-9.213 17.288 9.688 27.357 23.777 27.357 39.685zm-103.876 17.82l-2.906-1.297c-20.969-9.187-20.969-12.43-20.984-16.367.344-1.89 5.641-8.57 19.797-13.383 1.372-.456 2.721-.846 4.094-1.294v32.341zm16 14.272v-51.671c3.521-1.094 7.102-2.271 10.578-3.344 1.815-.558 3.614-1.117 5.422-1.675v49.556l-16 7.134zm32-14.27v-32.339c1.358.429 2.715.837 4.078 1.29 14.047 4.766 19.39 11.383 19.797 13.328 0 4.054-.172 7.313-21.016 16.446l-2.859 1.275zm61.204-124.346l1.969-7.453-7.359-2.25c-5.234-1.602-10.844-3.57-16.39-7.141-13.594-8.758-18.359-24.156-13.531-32.078 2.625-4.297 7.094-5.469 11.156-5.469 2.922 0 5.641.602 7.344 1.086 16.422 4.61 33.875 22.766 33.875 47.328 0 42.141-48.375 57.039-104.39 74.289-10.218 3.149-20.703 6.375-31.11 9.828-18.61 6.328-30.641 17.469-30.641 28.383 0 16.508 12.656 23.336 30.484 31.156l9.39 4.19v3.884l-3.656 1.631c-3.614 1.673-6.92 3.578-10.071 5.588-12.782-4.59-42.147-18.222-42.147-46.447 0-20.117 15.828-37.508 42.297-46.508 13.718-4.554 26.078-8.5 37.187-12.047 54.655-17.454 79.609-25.422 85.593-47.97zm-93.204 28.483V79.19a39.948 39.948 0 0 0 16 0v203.534c-2.539.817-5.297 1.698-8 2.562-2.703-.863-5.46-1.744-8-2.561zm8-218.725c-13.234 0-24-10.766-24-24s10.766-24 24-24 24 10.766 24 24-10.765 24-24 24zm148.344 58.617L347.6 104.09c7.758-5.884 13.606-14.164 15.603-24.059h-17.898c-3.291 8.925-11.808 15.336-21.864 15.336-4.766 0-8.625 3.867-8.625 8.633 0 12.101-9.273 21.956-21.067 23.134l9.077 15.722c14.393-4.23 25.542-16.097 28.474-30.99 5.434-1.07 10.236-3.542 14.654-6.553l46.076 46.068c-16.328 10.297-40.859 8.477-54.718-5.367l-7.453-7.446c-6.686 11.857-11.048 21.461-25.953 21.461-8.406 0-16.656-4.828-21.031-12.297l-7.5-12.828c-2.118 4.29-5.013 10.375-7.39 14.526v-30.474c14.703-3.676 23.016-17.243 31.047-30.506 12.031-19.875 24.453-40.422 59.375-40.422H459.22c-3.158 16.15-16.346 32.001-45.861 32.001h-40.218l67.656 28.023c-10.156 15.127-30.223 22.129-48.469 14.565z"/><ellipse cx="316.144" cy="215.848" rx="8" ry="8.12"/></symbol><symbol viewBox="0 -29 512 512" id="cloud-computing" xmlns="http://www.w3.org/2000/svg"><path d="M245.871 134.617v12.844c0 5.601 4.543 10.144 10.145 10.144s10.144-4.542 10.144-10.144v-12.953c15.528-4.492 26.914-18.828 26.914-35.785 0-20.54-16.71-37.254-37.254-37.254-20.543 0-37.254 16.715-37.254 37.254 0 17.097 11.579 31.53 27.305 35.894zm9.95-52.86c9.355 0 16.968 7.614 16.968 16.97 0 9.355-7.613 16.964-16.969 16.964-9.355 0-16.965-7.609-16.965-16.964 0-9.356 7.61-16.97 16.965-16.97zm0 0M265.54 184.629c-1.868-5.281-7.665-8.05-12.946-6.184-5.281 1.871-8.051 7.664-6.184 12.95l.082.226a10.15 10.15 0 0 0 9.563 6.766c1.12 0 2.265-.188 3.382-.582 5.282-1.871 8.051-7.664 6.184-12.95zm0 0"/><path d="M501.855 279.652H437.06c-5.602 0-10.141 4.543-10.141 10.145v22.723H266.16v-29.668h96.633c.89 0 22.09-.122 43.434-10.797 20.304-10.153 44.503-31.774 44.503-77.145 0-25.875-7.878-45.953-23.417-59.672-18.286-16.14-42.329-18.84-55.715-18.933-1.938-11.563-6.512-31.875-16.75-52.352C333.926 22.113 299.684 0 255.82 0c-54.879 0-81.242 23.746-93.691 43.664-8.469 13.55-11.703 27.113-12.938 35.594-8.992 1.863-24.105 5.957-39.304 14.402-32.04 17.8-48.977 46.086-48.977 81.8 0 55.419 29.488 81.794 54.23 94.165 26.153 13.078 52.067 13.227 53.16 13.227h77.571v29.668H85.082v-21.618c0-5.601-4.539-10.144-10.14-10.144H10.144C4.543 280.758 0 285.3 0 290.902V355.7c0 5.602 4.543 10.145 10.145 10.145H74.94c5.602 0 10.141-4.543 10.141-10.145v-22.89h160.79v36.433h-59.888c-5.601 0-10.144 4.543-10.144 10.145v64.793c0 5.601 4.543 10.144 10.144 10.144h27.938c5.601 0 10.144-4.543 10.144-10.144 0-5.602-4.543-10.14-10.144-10.14h-17.793V389.53h120.055v44.508h-19.817c-5.601 0-10.14 4.54-10.14 10.14 0 5.602 4.539 10.145 10.14 10.145h29.961c5.606 0 10.145-4.543 10.145-10.144v-64.793c0-5.602-4.54-10.145-10.145-10.145H266.16V332.81h160.758v21.78c0 5.602 4.539 10.145 10.14 10.145h64.797c5.602 0 10.145-4.543 10.145-10.144v-64.793c0-5.602-4.543-10.145-10.145-10.145zm-160.953-87.851c0-9.356 7.61-16.965 16.965-16.965 9.36 0 16.969 7.61 16.969 16.965s-7.61 16.969-16.969 16.969c-9.355 0-16.965-7.614-16.965-16.97zM81.2 175.46c0-28.106 12.793-49.563 38.028-63.777 19.722-11.11 39.996-13.606 40.48-13.664 5.098-.57 8.965-4.907 9.012-10.036.023-2.765 1.594-67.699 87.101-67.699 35.993 0 63.121 17.578 80.633 52.246 13.692 27.106 16.207 54.883 16.23 55.149a10.142 10.142 0 0 0 3.712 7.015 10.163 10.163 0 0 0 7.628 2.211c.305-.035 30.727-3.445 49.95 13.621 10.93 9.7 16.472 24.633 16.472 44.383 0 66.504-64.918 67.637-67.652 67.653h-29.95v-27.52l9.427-9.426a36.967 36.967 0 0 0 15.597 3.438c20.543 0 37.258-16.711 37.258-37.254s-16.715-37.254-37.258-37.254c-20.539 0-37.254 16.71-37.254 37.254a37.026 37.026 0 0 0 6.215 20.566l-11.3 11.301a10.148 10.148 0 0 0-2.973 7.172v31.722H266.16v-34.464c0-5.602-4.543-10.145-10.144-10.145s-10.145 4.543-10.145 10.145v34.464h-52.45V230.84c0-2.688-1.07-5.27-2.972-7.172l-11.3-11.3a37.026 37.026 0 0 0 6.214-20.567c0-20.54-16.715-37.254-37.254-37.254-20.543 0-37.257 16.71-37.257 37.254s16.714 37.254 37.257 37.254a37.01 37.01 0 0 0 15.598-3.434l9.426 9.422v27.523h-4.813c-3.554-.015-87.12-1.378-87.12-87.105zm66.91 33.309c-9.355 0-16.968-7.614-16.968-16.97s7.613-16.964 16.968-16.964 16.965 7.61 16.965 16.965-7.61 16.969-16.965 16.969zM64.797 345.555H20.289v-44.508h44.508zm426.914-1.106h-44.508v-44.508h44.508zm0 0"/><path d="M264.805 440.7c-1.86-5.286-7.653-8.063-12.938-6.2-5.285 1.86-8.058 7.652-6.199 12.938l.082.226a10.147 10.147 0 0 0 9.566 6.781c1.118 0 2.258-.187 3.371-.578 5.286-1.863 8.06-7.656 6.2-12.937zm0 0"/></symbol><symbol viewBox="0 0 512.001 512" id="computer" xmlns="http://www.w3.org/2000/svg"><path d="M55.262 28.762c-12.125 0-21.989 9.867-21.989 21.988 0 12.125 9.864 21.992 21.989 21.992s21.992-9.867 21.992-21.992c0-12.121-9.867-21.988-21.992-21.988zm0 28.992c-3.86 0-7.004-3.14-7.004-7.004 0-3.86 3.144-7 7.004-7 3.863 0 7.004 3.14 7.004 7a7.01 7.01 0 0 1-7.004 7.004zm0 0M111.25 28.762c-12.125 0-21.992 9.867-21.992 21.988 0 12.125 9.867 21.992 21.992 21.992s21.988-9.867 21.988-21.992c0-12.121-9.863-21.988-21.988-21.988zm0 28.992a7.01 7.01 0 0 1-7.004-7.004c0-3.86 3.14-7 7.004-7 3.86 0 7.004 3.14 7.004 7 0 3.863-3.145 7.004-7.004 7.004zm0 0M167.234 28.762c-12.125 0-21.988 9.867-21.988 21.988 0 12.125 9.863 21.992 21.988 21.992s21.993-9.867 21.993-21.992c0-12.121-9.868-21.988-21.993-21.988zm0 28.992c-3.859 0-7.004-3.14-7.004-7.004 0-3.86 3.145-7 7.004-7 3.864 0 7.004 3.14 7.004 7a7.01 7.01 0 0 1-7.004 7.004zm0 0"/><path d="M503.938 147.824a7.495 7.495 0 0 0 7.496-7.496L512 32.977C512 14.793 497.207 0 479.023 0H32.98C14.797 0 0 14.797 0 32.98v362.567c0 16.48 12.152 30.176 27.965 32.598a32.71 32.71 0 0 0 5.015.382h145.805v26.875H156.16c-15.09 0-27.37 12.278-27.37 27.368v16.19c0 6.888 5.6 12.49 12.487 12.49h35.735a7.494 7.494 0 0 0 0-14.99h-33.235v-13.69c0-6.829 5.555-12.383 12.383-12.383h199.113c6.829 0 12.383 5.554 12.383 12.383v13.69H223.531a7.494 7.494 0 0 0 0 14.988h146.621c6.887.001 12.489-5.6 12.489-12.487V482.77c0-15.09-12.278-27.368-27.371-27.368h-22.625v-26.875h145.808c1.703 0 3.379-.129 5.012-.382 15.816-2.422 27.965-16.118 27.965-32.598V186.789a7.492 7.492 0 1 0-14.985 0v165.348H262.211V101.93h234.234v38.398a7.494 7.494 0 0 0 7.493 7.496zM15.538 101.93h231.684v249.668H15.539zM317.66 455.402H193.773v-26.875H317.66zm178.785-88.277v28.422c0 9.3-7.093 16.976-16.156 17.902-.605.059-1.215.09-1.836.09H32.98c-.62 0-1.234-.031-1.835-.09-9.063-.926-16.157-8.601-16.157-17.902v-28.422zM254.72 86.941H15.539V32.977c0-9.918 8.07-17.989 17.992-17.989h444.922c9.922 0 17.992 8.07 17.992 17.992v53.961zm0 0"/><path d="M46.906 131.793h37.965a7.491 7.491 0 0 0 7.492-7.492 7.494 7.494 0 0 0-7.492-7.492H46.906a7.492 7.492 0 1 0 0 14.984zm0 0M110.848 131.793h17.984a7.491 7.491 0 0 0 7.492-7.492 7.494 7.494 0 0 0-7.492-7.492h-17.984a7.491 7.491 0 0 0-7.493 7.492 7.489 7.489 0 0 0 7.493 7.492zm0 0M103.852 143.258H78.875a7.494 7.494 0 0 0 0 14.988h24.977a7.494 7.494 0 1 0 0-14.988zm0 0M221.746 170.656H196.77a7.494 7.494 0 0 0-7.493 7.492 7.494 7.494 0 0 0 7.493 7.493h24.976a7.491 7.491 0 0 0 7.492-7.493 7.491 7.491 0 0 0-7.492-7.492zm0 0M119.34 150.754a7.494 7.494 0 0 0 7.492 7.492h59.945a7.494 7.494 0 1 0 0-14.988h-59.945a7.494 7.494 0 0 0-7.492 7.496zm0 0M95.36 178.148a7.494 7.494 0 0 0 7.495 7.493h12.989a7.494 7.494 0 0 0 7.492-7.493 7.494 7.494 0 0 0-7.492-7.492h-12.989a7.494 7.494 0 0 0-7.496 7.492zm0 0M173.79 185.64a7.494 7.494 0 0 0 7.495-7.492 7.494 7.494 0 0 0-7.496-7.492h-35.965a7.494 7.494 0 0 0-7.496 7.492 7.494 7.494 0 0 0 7.496 7.493zm0 0M92.363 275.27a7.491 7.491 0 0 0-7.492-7.493H46.906a7.492 7.492 0 1 0 0 14.985h37.965a7.494 7.494 0 0 0 7.492-7.492zm0 0M110.848 267.777a7.489 7.489 0 0 0-7.493 7.493 7.491 7.491 0 0 0 7.493 7.492h17.984a7.494 7.494 0 0 0 7.492-7.492 7.491 7.491 0 0 0-7.492-7.493zm0 0M111.348 301.719a7.494 7.494 0 0 0-7.496-7.492H78.875a7.494 7.494 0 0 0 0 14.988h24.977a7.495 7.495 0 0 0 7.496-7.496zm0 0M115.844 321.625h-12.989a7.492 7.492 0 1 0 0 14.984h12.989a7.494 7.494 0 0 0 7.492-7.492 7.491 7.491 0 0 0-7.492-7.492zm0 0M221.746 321.625H196.77a7.491 7.491 0 0 0-7.493 7.492 7.494 7.494 0 0 0 7.493 7.492h24.976a7.491 7.491 0 0 0 7.492-7.492 7.489 7.489 0 0 0-7.492-7.492zm0 0M194.273 301.719a7.494 7.494 0 0 0-7.496-7.492h-59.945a7.494 7.494 0 0 0 0 14.988h59.945a7.495 7.495 0 0 0 7.496-7.496zm0 0M173.79 321.625h-35.966a7.492 7.492 0 1 0 0 14.984h35.965a7.492 7.492 0 1 0 0-14.984zm0 0M46.906 219.977h20.98a7.494 7.494 0 0 0 7.493-7.493 7.491 7.491 0 0 0-7.492-7.492h-20.98a7.492 7.492 0 1 0 0 14.985zm0 0M173.29 212.484a7.489 7.489 0 0 0-7.493-7.492h-76.93a7.491 7.491 0 0 0-7.492 7.492 7.494 7.494 0 0 0 7.492 7.493h76.93a7.491 7.491 0 0 0 7.492-7.493zm0 0M159.305 238.934a7.494 7.494 0 0 0-7.496-7.493H78.875a7.494 7.494 0 0 0 0 14.988h72.934a7.495 7.495 0 0 0 7.496-7.495zm0 0M172.793 246.43h13.984a7.495 7.495 0 1 0 0-14.989h-13.984a7.494 7.494 0 1 0 0 14.989zm0 0M343.016 289.652h-47.954a7.492 7.492 0 1 0 0 14.984h47.954a7.492 7.492 0 1 0 0-14.984zm0 0M464.906 289.652h-94.914a7.494 7.494 0 0 0-7.492 7.493 7.491 7.491 0 0 0 7.492 7.492h94.914a7.492 7.492 0 1 0 0-14.985zm0 0M343.016 318.625h-47.954a7.495 7.495 0 1 0 0 14.988h47.954a7.494 7.494 0 1 0 0-14.988zm0 0M464.906 318.625h-94.914a7.494 7.494 0 0 0 0 14.988h94.914a7.494 7.494 0 1 0 0-14.988zm0 0M472.629 136.172c0-10.676-8.684-19.363-19.36-19.363H306.7c-10.676 0-19.363 8.687-19.363 19.363V255.414c0 10.676 8.687 19.363 19.363 19.363h146.57c10.676 0 19.36-8.687 19.36-19.363zm-14.984 119.242a4.38 4.38 0 0 1-4.375 4.375H306.7a4.378 4.378 0 0 1-4.376-4.375v-14.648l54.883-54.856 37.879 42.688a7.492 7.492 0 0 0 10.578.632 7.492 7.492 0 0 0 .633-10.578l-3.438-3.87 16.938-16.93 37.848 42.656zm0-37.488l-28.84-32.5a11.915 11.915 0 0 0-8.52-3.985 11.9 11.9 0 0 0-8.742 3.47l-18.648 18.636-26.68-30.063a11.885 11.885 0 0 0-8.52-3.984 11.942 11.942 0 0 0-8.742 3.465l-46.629 46.61v-83.403a4.381 4.381 0 0 1 4.375-4.379h146.57a4.381 4.381 0 0 1 4.376 4.379zm0 0"/></symbol><symbol viewBox="0 0 512 512" id="delivery-truck" xmlns="http://www.w3.org/2000/svg"><path d="M458.671 214.24v-11.571c0-17.645-14.354-32-32-32H320v-53.337c0-5.891-4.775-10.667-10.667-10.667h-32.001V74.67c0-5.891-4.776-10.667-10.667-10.667H121.759L103.545 45.79c-4.164-4.165-10.918-4.165-15.084 0l-60.878 60.875H10.667C4.776 106.666 0 111.441 0 117.332V416c0 5.89 4.776 10.667 10.667 10.667h43.739A53.103 53.103 0 0 0 64.028 448H42.666C36.775 448 32 452.777 32 458.667s4.775 10.667 10.667 10.667h63.997c.027 0 .052-.004.079-.004 25.72-.037 47.231-18.373 52.181-42.662H353.08a53.104 53.104 0 0 0 9.623 21.333H341.34c-5.89 0-10.667 4.776-10.667 10.667s4.776 10.667 10.667 10.667h63.997c.027 0 .053-.004.08-.004 25.72-.037 47.231-18.373 52.181-42.662h43.735c5.891 0 10.667-4.776 10.667-10.667V277.332c0-31.653-23.104-57.996-53.329-63.092zM255.999 85.337v21.329h-91.576l-21.33-21.329h112.906zM96.003 68.417l13.788 13.787.016.016 24.446 24.446H57.754l38.249-38.249zm10.663 379.581c-17.646 0-32.001-14.354-32.001-31.998 0-17.646 14.355-32.002 32.001-32.002 17.644 0 31.998 14.356 31.998 32.002-.001 17.644-14.355 31.998-31.998 31.998zm192-266.662v181.332h-72.543c-5.891 0-10.667 4.776-10.667 10.667s4.775 10.667 10.667 10.667h72.543v21.333H158.924c-4.955-24.316-26.503-42.668-52.258-42.668-25.755 0-47.306 18.353-52.261 42.668H21.333V234.668h42.665c5.89 0 10.667-4.775 10.667-10.667 0-5.891-4.776-10.667-10.667-10.667H21.333v-21.332H149.33c5.891 0 10.667-4.775 10.667-10.667 0-5.891-4.775-10.667-10.667-10.667H21.333v-42.671h277.333v53.339zm54.414 223.998H320v-21.333h42.701a53.08 53.08 0 0 0-9.621 21.333zm84.257 10.701c-.019 17.629-14.366 31.963-31.998 31.963-17.645 0-32.001-14.354-32.001-31.998 0-17.619 14.311-31.955 31.919-32h.08l.028-.001c17.621.014 31.953 14.346 31.972 31.967l-.001.034.001.035zm53.33-10.701h-33.069c-4.956-24.316-26.504-42.668-52.259-42.668l-.082.002h-85.258V192.003h106.672c5.882 0 10.667 4.785 10.667 10.667v10.666h-74.666c-5.89 0-10.667 4.775-10.667 10.667v95.998c0 5.891 4.776 10.667 10.667 10.667h127.995v74.666zm-95.994-170.666v74.665h-21.334v-74.665h21.334zm95.994 74.665h-74.661v-74.665h31.999c23.524 0 42.662 19.138 42.662 42.663v32.002z"/><path d="M184.397 384.001h6.658c5.89 0 10.667-4.776 10.667-10.667s-4.776-10.667-10.667-10.667h-6.658c-5.891 0-10.667 4.776-10.667 10.667s4.777 10.667 10.667 10.667zM184.397 192.003h6.658c5.89 0 10.667-4.775 10.667-10.667 0-5.891-4.776-10.667-10.667-10.667h-6.658c-5.891 0-10.667 4.775-10.667 10.667.001 5.891 4.777 10.667 10.667 10.667z"/></symbol><symbol viewBox="0 0 512 512" id="ebook" xmlns="http://www.w3.org/2000/svg"><path d="M458 0H110C73.607 0 44 29.607 44 66v382c0 .414.033.819.082 1.219C45.767 484.122 74.687 512 110 512h348c5.522 0 10-4.478 10-10V10c0-5.522-4.478-10-10-10zM64 66c0-21.931 15.429-40.326 36-44.905v359.662c-13.893 2.121-26.365 8.599-36 17.979V66zm384 314H237c-5.522 0-10 4.478-10 10s4.478 10 10 10h90.641v71.217a10.002 10.002 0 0 0 15.96 8.031l30.04-22.294 30.04 22.294a9.999 9.999 0 0 0 15.96-8.03V400H448v92H110c-25.364 0-46-20.636-46-46s20.636-46 46-46h46.667c5.522 0 10-4.478 10-10s-4.478-10-10-10H120V20h328v360zm-48.359 20v51.343l-20.04-14.873a10 10 0 0 0-11.92 0l-20.04 14.873V400h52z"/><path d="M205.069 382.93C203.21 381.069 200.63 380 198 380s-5.21 1.069-7.07 2.93c-1.86 1.861-2.93 4.44-2.93 7.07s1.069 5.21 2.93 7.069c1.86 1.86 4.44 2.931 7.07 2.931s5.21-1.07 7.069-2.931C206.93 395.21 208 392.63 208 390s-1.07-5.21-2.931-7.07zM256 419.988H113.5c-5.522 0-10 4.478-10 10s4.478 10 10 10H256c5.522 0 10-4.478 10-10s-4.478-10-10-10zM291.014 459.887H113.5c-5.522 0-10 4.478-10 10s4.478 10 10 10h177.514c5.522 0 10-4.478 10-10s-4.478-10-10-10zM298.08 422.92a10.06 10.06 0 0 0-7.07-2.93c-2.63 0-5.21 1.069-7.07 2.93a10.078 10.078 0 0 0-2.93 7.07c0 2.63 1.07 5.21 2.93 7.069a10.09 10.09 0 0 0 7.07 2.931c2.64 0 5.21-1.07 7.07-2.931a10.029 10.029 0 0 0 2.93-7.069c0-2.631-1.06-5.21-2.93-7.07zM361.917 180H206.083C183.981 180 166 197.981 166 220.083v77.834C166 320.019 183.981 338 206.083 338h155.834C384.019 338 402 320.019 402 297.917v-77.834C402 197.981 384.019 180 361.917 180zM382 297.917c0 11.074-9.009 20.083-20.083 20.083H206.083C195.009 318 186 308.991 186 297.917v-77.834c0-11.074 9.009-20.083 20.083-20.083h155.834c11.074 0 20.083 9.009 20.083 20.083v77.834z"/><path d="M311.688 242.945l-34.797-22.304a19.059 19.059 0 0 0-19.438-.677 19.063 19.063 0 0 0-9.92 16.73v44.607a19.063 19.063 0 0 0 9.92 16.733 19.06 19.06 0 0 0 19.438-.677l34.797-22.304a18.986 18.986 0 0 0 8.778-16.054c0-6.529-3.281-12.53-8.778-16.054zM267.533 279.6v-41.2l32.139 20.6-32.139 20.6zM305.424 114c5.522 0 10-4.478 10-10s-4.478-10-10-10H273V74h32.424c5.522 0 10-4.478 10-10s-4.478-10-10-10H263c-5.522 0-10 4.478-10 10v80c0 5.522 4.478 10 10 10h42.424c5.522 0 10-4.478 10-10s-4.478-10-10-10H273v-20h32.424z"/></symbol><symbol viewBox="0 0 512 512" id="employee" xmlns="http://www.w3.org/2000/svg"><path d="M421.054 414.843a7.5 7.5 0 0 0-7.5 7.5v70.514a4.146 4.146 0 0 1-4.141 4.141h-40.317V349.301a7.5 7.5 0 0 0-15 0v147.698h-81.185l23.543-25.9c2.572-2.83 3.785-6.861 3.244-10.787a5.982 5.982 0 0 0-.035-.228L277.24 327.617l6.041-9.094c3.34 2.372 5.913 4.656 10.738 4.656 4.908 0 9.497-2.747 11.755-7.269v-.001l23.65-47.4 53.876 20.865c1.949.836 30.252 13.582 30.252 47.238v50.73a7.5 7.5 0 0 0 15 0v-50.73c0-44.344-37.969-60.463-39.585-61.128a3.546 3.546 0 0 0-.143-.057l-89.668-34.726v-21.03c14.242-11.076 24.117-27.495 26.596-46.227 7.101-.5 13.69-3.152 19.071-7.779a31.786 31.786 0 0 0 11.059-24.126 31.791 31.791 0 0 0-7.737-20.803V92.953C348.144 41.699 306.446 0 255.192 0c-51.254 0-92.952 41.699-92.952 92.953v28.511c-5.009 5.677-7.733 12.665-7.733 20.074 0 9.291 4.03 18.085 11.059 24.129 5.377 4.625 11.962 7.274 19.061 7.775 2.499 19.083 12.662 36.114 28.117 47.339v19.92l-89.571 34.725a8.255 8.255 0 0 0-.141.056c-1.617.665-39.585 16.784-39.585 61.128v156.245c0 10.555 8.587 19.142 19.142 19.142h71.457a7.5 7.5 0 0 0 0-15h-16.137V349.301a7.5 7.5 0 0 0-15 0v147.698H102.59a4.146 4.146 0 0 1-4.141-4.141V336.611c0-33.769 28.493-46.486 30.243-47.234l53.834-20.87 23.652 47.402a13.133 13.133 0 0 0 11.756 7.27c4.801 0 7.349-2.249 10.738-4.656l6.041 9.094-22.421 132.468c-.013.075-.024.15-.035.226-.542 3.924.671 7.957 3.244 10.789l23.543 25.9h-29.995a7.5 7.5 0 0 0 0 15h200.365c10.555 0 19.142-8.588 19.142-19.142v-70.514a7.503 7.503 0 0 0-7.502-7.501zM315.375 263.069l-22.049 44.19c-.548-.389-12.233-8.691-26.517-18.834l27.235-33.617 21.331 8.261zm-44.332 46.764l-5.718 8.607h-18.703l-5.718-8.607 15.07-10.703 15.069 10.703zm-43.3-66.712v-14.036c9.112 3.673 18.85 5.376 28.36 5.376 9.833 0 19.476-2.096 28.052-5.846v14.567l-28.181 34.785-28.231-34.846zm113.138-101.582a16.804 16.804 0 0 1-5.839 12.753c-2.453 2.11-5.416 3.459-8.661 3.987v-33.477c8.62 1.4 14.5 8.55 14.5 16.737zm-156.874 16.74c-8.718-1.415-14.5-8.623-14.5-16.741 0-8.018 6.647-14.544 14.5-16.359v33.1zm.403-48.383c-2.389.274-5.127.921-7.168 1.615V92.953c0-42.983 34.968-77.952 77.951-77.952 42.983 0 77.951 34.969 77.951 77.952v18.043a33.343 33.343 0 0 0-6.762-1.307c0-7.237.063-5.841-23.612-31.294-4.354-4.678-11.556-5.658-17.037-2.077-26.13 17.069-58.005 25.644-87.415 23.532-6.451-.483-12.327 3.766-13.908 10.046zm14.598 54.288V114.927c32.375 1.896 66.318-7.722 93.739-25.283 10.858 11.658 16.738 17.773 18.634 20.099v54.44c0 30.447-24.826 55.276-55.277 55.276-34.194.001-57.096-26.525-57.096-55.275zm19.615 143.075l-22.049-44.19 21.293-8.247 27.241 33.625c-13.853 9.837-25.228 17.919-26.485 18.812zm8.605 154.443l21.709-128.263h14.071l21.709 128.263-28.744 31.623-28.745-31.623z"/></symbol><symbol viewBox="0 0 512 512" id="factory" xmlns="http://www.w3.org/2000/svg"><path d="M466.07 158.75c4.989-7.137 7.93-15.809 7.93-25.156v-13.04c3.832-1.402 6.574-5.07 6.574-9.386v-3.098c0-27.886-22.687-50.574-50.574-50.574s-50.574 22.688-50.574 50.574v3.098c0 4.316 2.742 7.984 6.574 9.387v13.039c0 9.347 2.938 18.02 7.93 25.156-25.063 5.133-44.223 26.629-45.813 52.797H290c-5.523 0-10 4.476-10 10v62h-40.566v-62c0-5.524-4.48-10-10-10h-72c-5.524 0-10 4.476-10 10v62h-36V150.125l69.703-69.703 46.523 46.52a30.63 30.63 0 0 0 12.84 7.695v16.886l-20.902 20.903a10 10 0 0 0-2.93 7.07v18.469c0 5.52 4.48 10 10 10 5.523 0 10-4.48 10-10V183.64l13.832-13.832 13.832 13.832v12.824c0 5.523 4.48 10 10 10 5.523 0 10-4.477 10-10v-16.969a10 10 0 0 0-2.93-7.07L260.5 151.523V133.93a30.71 30.71 0 0 0 10.797-6.989c5.828-5.828 9.039-13.578 9.039-21.82s-3.211-15.988-9.04-21.816l-72.573-72.578a.68.68 0 0 1-.055-.047c-14.356-14.266-37.64-14.239-51.965.078L58.16 99.3c-20.562 4.011-36.137 22.152-36.137 43.875v51.789c0 5.52 4.48 10 10 10 5.524 0 10-4.48 10-10v-14.559a44.411 44.411 0 0 0 24.704 7.473 44.414 44.414 0 0 0 24.707-7.473v106.715c-.473.2-.934.414-1.399.629a66.452 66.452 0 0 0-23.308-4.203c-8.727 0-17.059 1.7-24.704 4.758V268.96c0-5.52-4.476-10-10-10-5.523 0-10 4.48-10 10v31.816C8.508 313 0 330.66 0 350.273v151.692c0 5.52 4.477 10 10 10h456c5.52 0 10-4.48 10-10V335.156c20.078-1.363 36-18.125 36-38.547v-81.546c0-27.739-19.75-50.954-45.93-56.313zm-36.61-1.168c-12.983-.289-23.46-10.934-23.46-23.988v-12.426h48v12.426c0 13.054-10.477 23.699-23.46 23.988zm30.33-56.414H440V79.18c9.836 3.418 17.41 11.718 19.79 21.988zM420 79.18v21.988h-19.79c2.38-10.27 9.954-18.57 19.79-21.988zm-7 224.367c13.785 0 25 11.215 25 25s-11.215 25-25 25H109c-13.785 0-25-11.215-25-25s11.215-25 25-25zm-9 70h9c2.383 0 4.719-.192 7-.547v118.965h-16zM64.531 335.449c1.422 9.219 5.664 17.516 11.801 23.996a13.957 13.957 0 0 1-9.605 3.813c-7.72 0-14-6.278-14-14 0-6.969 5.125-12.75 11.804-13.809zM300 231.547h52v52h-52zm-132.566 0h52v52h-52zM146.848 62.633c4.21 4.207 9.261 7.262 14.777 9.015l-53.844 53.844a44.968 44.968 0 0 0-23.922-23.605l54.008-54.004a36.485 36.485 0 0 0 8.98 14.75zm113.488 42.488c0 2.899-1.133 5.625-3.184 7.676-4.23 4.234-11.12 4.234-15.351 0l-46.524-46.52 3.477-3.472a36.688 36.688 0 0 0 9.016-14.746l49.382 49.386a10.789 10.789 0 0 1 3.184 7.676zm-75.727-80.219a16.675 16.675 0 0 1 4.922 11.88 16.67 16.67 0 0 1-4.12 11c-.27.218-.536.452-.79.706-6.516 6.516-17.117 6.516-23.633 0-6.511-6.515-6.511-17.113 0-23.629.153-.152.29-.312.43-.472 6.586-6.012 16.824-5.856 23.191.515zM66.727 167.88c-13.622 0-24.704-11.082-24.704-24.703 0-13.625 11.082-24.707 24.704-24.707 13.625 0 24.707 11.082 24.707 24.707 0 13.62-11.082 24.703-24.707 24.703zM20 350.273c0-25.765 20.96-46.726 46.727-46.726 1.59 0 3.164.082 4.722.238A44.756 44.756 0 0 0 66 315.277c-18.414.391-33.273 15.477-33.273 33.98 0 18.75 15.253 34 34 34 10.414 0 20.046-4.702 26.425-12.6a44.762 44.762 0 0 0 15.848 2.89h4.457V491.96H20zm364 141.692H133.457v-70.418H250.5c5.523 0 10-4.48 10-10 0-5.524-4.477-10-10-10H133.457v-28H384zm56 0V364.523c7.488-5.636 13.168-13.546 16-22.699v150.14zm52-195.356c0 9.383-6.973 17.149-16 18.442v-85.024c0-5.523-4.477-10-10-10s-10 4.477-10 10v85.242c-5.68-18.351-22.809-31.722-43-31.722h-9v-53.52c0-5.523-4.477-10-10-10s-10 4.477-10 10v53.52h-12v-62a9.972 9.972 0 0 0-3.96-7.957c.776-19.988 17.269-36.008 37.444-36.008h23.977c.18 0 .36.012.539.012.184 0 .36-.008.54-.012h23.98c20.668 0 37.48 16.813 37.48 37.48zm0 0"/><path d="M32.02 244.965c2.628 0 5.21-1.07 7.07-2.934a10.02 10.02 0 0 0 2.93-7.066c0-2.633-1.06-5.211-2.93-7.07a10.042 10.042 0 0 0-7.07-2.93c-2.63 0-5.211 1.066-7.07 2.93a10.073 10.073 0 0 0-2.93 7.07 10.07 10.07 0 0 0 2.93 7.066 10.067 10.067 0 0 0 7.07 2.934zm0 0M66.73 133.172c-2.64 0-5.21 1.07-7.07 2.93a10.087 10.087 0 0 0-2.93 7.07c0 2.64 1.07 5.21 2.93 7.07 1.86 1.86 4.43 2.93 7.07 2.93 2.63 0 5.207-1.07 7.07-2.93a10.073 10.073 0 0 0 2.93-7.07c0-2.629-1.07-5.207-2.93-7.07a10.087 10.087 0 0 0-7.07-2.93zm0 0M165.73 43.742a10.087 10.087 0 0 0 7.07 2.93c2.637 0 5.208-1.07 7.079-2.93a10.073 10.073 0 0 0 2.93-7.07c0-2.629-1.07-5.207-2.93-7.07a10.122 10.122 0 0 0-7.078-2.93c-2.633 0-5.203 1.07-7.07 2.93a10.079 10.079 0 0 0-2.922 7.07c0 2.633 1.062 5.21 2.921 7.07zm0 0M202 318.543a10.08 10.08 0 0 0-7.07 2.93 10.087 10.087 0 0 0-2.93 7.07c0 2.629 1.07 5.21 2.93 7.07 1.86 1.867 4.441 2.93 7.07 2.93s5.21-1.063 7.07-2.93a10.08 10.08 0 0 0 2.93-7.07c0-2.629-1.07-5.211-2.93-7.07a10.08 10.08 0 0 0-7.07-2.93zm0 0M138 318.543a10.08 10.08 0 0 0-7.07 2.93 10.087 10.087 0 0 0-2.93 7.07c0 2.64 1.07 5.21 2.93 7.07 1.86 1.86 4.43 2.93 7.07 2.93 2.629 0 5.21-1.07 7.07-2.93 1.86-1.86 2.93-4.43 2.93-7.07 0-2.629-1.07-5.211-2.93-7.07a10.08 10.08 0 0 0-7.07-2.93zm0 0M394 338.543c2.629 0 5.21-1.063 7.07-2.93 1.86-1.86 2.93-4.43 2.93-7.07 0-2.629-1.07-5.211-2.93-7.07-1.86-1.86-4.441-2.93-7.07-2.93s-5.21 1.07-7.07 2.93a10.087 10.087 0 0 0-2.93 7.07c0 2.64 1.07 5.21 2.93 7.07a10.03 10.03 0 0 0 7.07 2.93zm0 0M266 318.543a10.08 10.08 0 0 0-7.07 2.93 10.087 10.087 0 0 0-2.93 7.07c0 2.629 1.07 5.21 2.93 7.07 1.86 1.867 4.441 2.93 7.07 2.93s5.21-1.063 7.07-2.93c1.86-1.86 2.93-4.43 2.93-7.07 0-2.629-1.07-5.211-2.93-7.07a10.08 10.08 0 0 0-7.07-2.93zm0 0M330 318.543a10.08 10.08 0 0 0-7.07 2.93 10.087 10.087 0 0 0-2.93 7.07c0 2.629 1.07 5.21 2.93 7.07 1.86 1.867 4.441 2.93 7.07 2.93s5.21-1.063 7.07-2.93a10.08 10.08 0 0 0 2.93-7.07c0-2.629-1.07-5.211-2.93-7.07a10.08 10.08 0 0 0-7.07-2.93zm0 0M288.898 421.543a10.04 10.04 0 0 0 7.07-2.93c1.86-1.86 2.93-4.43 2.93-7.07 0-2.629-1.07-5.211-2.93-7.07s-4.429-2.93-7.07-2.93c-2.628 0-5.21 1.07-7.07 2.93s-2.93 4.441-2.93 7.07c0 2.64 1.07 5.21 2.93 7.07a10.03 10.03 0 0 0 7.07 2.93zm0 0"/></symbol><symbol viewBox="0 0 279.131 279.131" id="houses" xmlns="http://www.w3.org/2000/svg"><path d="M276.346 109.821l-93.71-70.666a7 7 0 0 0-8.43 0l-15.405 11.617-15.405-11.617a7 7 0 0 0-8.43 0l-15.021 11.327-15.021-11.327a7 7 0 0 0-8.43 0l-93.71 70.666A7.003 7.003 0 0 0 0 115.41v118.977a7 7 0 0 0 7 7h265.131a7 7 0 0 0 7-7V115.41a7.001 7.001 0 0 0-2.785-5.589zm-11.215 117.566h-25.238V115.41a7 7 0 0 0-2.785-5.589l-66.68-50.282 7.993-6.028 86.71 65.388v108.488zm-63.71 0V115.41a7 7 0 0 0-2.785-5.589L131.572 59.25l7.61-5.738 86.711 65.388v108.488h-24.472zm-89.247-.001H89.246v-50.76h22.928v50.76zm14 0v-57.76a7 7 0 0 0-7-7H82.246a7 7 0 0 0-7 7v57.76H14V118.898l86.71-65.388 86.711 65.388v108.488h-61.247z"/></symbol><symbol viewBox="0 0 21.589 21.589" id="icon" xmlns="http://www.w3.org/2000/svg"><path d="M18.622 8.371l-.545-1.295s1.268-2.861 1.156-2.971l-1.679-1.639c-.116-.113-2.978 1.193-2.978 1.193l-1.32-.533S12.09.226 11.93.226H9.561c-.165 0-1.244 2.906-1.244 2.906l-1.318.535S4.077 2.425 3.965 2.536L2.289 4.177c-.116.113 1.218 2.916 1.218 2.916l-.545 1.293S0 9.527 0 9.681v2.322c0 .162 2.969 1.219 2.969 1.219l.545 1.291s-1.268 2.859-1.157 2.969l1.678 1.643c.114.111 2.977-1.195 2.977-1.195l1.321.535s1.166 2.898 1.327 2.898h2.369c.164 0 1.244-2.906 1.244-2.906l1.322-.535s2.916 1.242 3.029 1.133l1.678-1.641c.117-.115-1.22-2.916-1.22-2.916l.544-1.293s2.963-1.143 2.963-1.299v-2.32c.001-.161-2.967-1.215-2.967-1.215zm-4.366 2.423c0 1.867-1.553 3.387-3.461 3.387-1.906 0-3.461-1.52-3.461-3.387s1.555-3.385 3.461-3.385c1.909.001 3.461 1.518 3.461 3.385z"/></symbol><symbol viewBox="0 0 512 512" id="lace" xmlns="http://www.w3.org/2000/svg"><path fill="#f14742" d="M463.515 0H48.485v512L256 381.446 463.515 512z"/><path d="M388.692 162.487c-.882-2.716-3.758-5.228-8.513-5.515l-84.734-5.664-31.571-78.837c-1.742-4.433-5.021-6.392-7.876-6.392s-6.134 1.959-7.876 6.392l-31.571 78.837-84.734 5.664c-4.755.287-7.631 2.799-8.513 5.515-.882 2.715-.032 6.439 3.645 9.465l65.222 54.387-20.797 82.336c-1.197 4.61.305 8.124 2.613 9.801 2.309 1.677 6.114 2.018 10.129-.544L256 272.712l71.88 45.222c4.015 2.562 7.819 2.221 10.129.544 2.31-1.678 3.81-5.192 2.613-9.801l-20.797-82.336 65.221-54.387c3.679-3.028 4.529-6.753 3.646-9.467z" fill="#ffd24d"/></symbol><symbol viewBox="0 0 487.678 487.678" id="male-user" xmlns="http://www.w3.org/2000/svg"><g fill="#010002"><path d="M377.996 282.347c-56.201-18.357-79.563-41.185-79.563-41.185l-1.881 1.793c-16.69 15.709-35.149 24.944-51.965 24.944H243c-16.815 0-35.274-9.235-51.964-24.944l-1.882-1.793s-23.36 22.827-79.562 41.185c-82.964 30.992-58.053 157.119-58.077 158.096 2.613 14.047 4.136 18.875 5.463 19.417 83.314 37.091 290.319 37.091 373.634 0 1.327-.542 2.85-5.37 5.463-19.417-.024-.977 25.22-126.603-58.079-158.096z"/><path d="M330.924 121.441l-.696-.755c-4.668-4.274-4.303-4.029-4.303-4.029s8.142-41.083 1.613-60.511c-10.25-31.027-71.475-51.822-83.755-54.239.002-.023-7.469-1.518-7.946-1.521 0 0-9.659-1.953-20.854 2.93-7.291 2.805-45.408 20.09-56.227 52.83-6.528 19.428 1.614 60.511 1.614 60.511s.365-.245-4.304 4.029l-.695.755c-3.158 3.586-2.378 14.806 1.074 26.479 3.128 11.695 7.205 14.838 8.182 17.577 9.903 46.497 44.338 86.197 79.429 86.197s67.707-39.7 77.61-86.197c.978-2.738 5.055-5.882 8.183-17.577 3.452-11.674 4.323-23.664 1.075-26.479z"/></g></symbol><symbol viewBox="5.5 -3.5 64 64" id="nc" xmlns="http://www.w3.org/2000/svg"><circle fill="#FFF" cx="37.47" cy="28.736" r="29.471"/><path d="M37.442-3.5c8.99 0 16.571 3.085 22.743 9.256C66.393 11.928 69.5 19.509 69.5 28.5c0 8.992-3.048 16.476-9.145 22.458C53.88 57.32 46.241 60.5 37.442 60.5c-8.686 0-16.19-3.162-22.513-9.485C8.644 44.728 5.5 37.225 5.5 28.5c0-8.762 3.144-16.343 9.429-22.743C21.1-.414 28.604-3.5 37.442-3.5zM12.7 19.872c-.952 2.628-1.429 5.505-1.429 8.629 0 7.086 2.59 13.22 7.77 18.4 5.219 5.144 11.391 7.715 18.514 7.715 7.201 0 13.409-2.608 18.63-7.829 1.867-1.79 3.332-3.657 4.398-5.602l-12.056-5.371c-.421 2.02-1.439 3.667-3.057 4.942-1.622 1.276-3.535 2.011-5.744 2.2v4.915h-3.714v-4.915c-3.543-.036-6.782-1.312-9.714-3.827l4.4-4.457c2.094 1.942 4.476 2.913 7.143 2.913 1.104 0 2.048-.246 2.83-.743.78-.494 1.172-1.312 1.172-2.457 0-.801-.287-1.448-.858-1.943L37.9 31.127l-3.771-1.715-5.086-2.229L12.7 19.872zM37.557 2.214c-7.276 0-13.428 2.571-18.457 7.714a30.623 30.623 0 0 0-3.543 4.287L27.786 19.7c.533-1.676 1.542-3.019 3.029-4.028 1.484-1.009 3.218-1.571 5.2-1.686V9.071h3.715v4.915c2.934.153 5.6 1.143 8 2.971l-4.172 4.286c-1.793-1.257-3.619-1.885-5.486-1.885-.991 0-1.876.191-2.656.571-.781.381-1.172 1.029-1.172 1.943 0 .267.095.533.285.8l4.057 1.83 2.8 1.257 5.144 2.285 16.397 7.314a29.51 29.51 0 0 0 .801-6.857c0-7.353-2.552-13.543-7.656-18.573-5.067-5.143-11.241-7.714-18.515-7.714z"/></symbol><symbol viewBox="0 0 64.001 64" id="nd" xmlns="http://www.w3.org/2000/svg"><circle fill="#FFF" cx="32.064" cy="31.788" r="29.013"/><path d="M31.944 0c8.952 0 16.533 3.105 22.744 9.314C60.895 15.486 64 23.046 64 32s-3.049 16.457-9.146 22.514C48.418 60.838 40.78 64 31.943 64c-8.65 0-16.153-3.143-22.514-9.43C3.144 48.286 0 40.762 0 32.001c0-8.724 3.144-16.285 9.43-22.685C15.64 3.106 23.144 0 31.943 0zm.117 5.771c-7.276 0-13.43 2.57-18.459 7.715-5.22 5.297-7.83 11.468-7.83 18.514 0 7.125 2.59 13.257 7.771 18.4 5.181 5.182 11.352 7.77 18.516 7.77 7.123 0 13.332-2.607 18.627-7.827 5.028-4.876 7.543-10.99 7.543-18.343 0-7.313-2.554-13.484-7.657-18.514-5.067-5.144-11.238-7.715-18.511-7.715zm12.056 18.685v5.485H20.86v-5.485h23.257zm0 10.287v5.482H20.86v-5.482h23.257z"/></symbol><symbol viewBox="0 0 369.984 369.984" id="pantone-colors" xmlns="http://www.w3.org/2000/svg"><g fill="#222220"><path d="M336.285 104.028c12.388-17.36 10.807-41.692-4.761-57.261l-33.741-33.741C289.382 4.626 278.213 0 266.334 0c-11.88 0-23.049 4.626-31.449 13.025L38.487 209.424c-8.399 8.4-13.025 19.569-13.025 31.448 0 11.88 4.626 23.049 13.025 31.448l33.741 33.742c8.4 8.399 19.569 13.025 31.449 13.025 11.879 0 23.048-4.626 31.448-13.025l157.453-157.453-105.747 177.162c-4.034 6.76-10.461 11.544-18.094 13.471-7.637 1.929-15.561.767-22.321-3.27l-13.009-7.765a7.5 7.5 0 1 0-7.687 12.881l13.009 7.765a44.2 44.2 0 0 0 22.721 6.275c15.155 0 29.946-7.738 38.263-21.67l104.93-175.792-53.854 176.428c-2.299 7.529-7.393 13.714-14.342 17.413-6.95 3.698-14.925 4.469-22.454 2.172-3.957-1.212-8.153 1.021-9.362 4.983a7.498 7.498 0 0 0 4.983 9.362 44.584 44.584 0 0 0 13.04 1.959c7.189 0 14.314-1.763 20.841-5.236 10.486-5.581 18.172-14.912 21.64-26.274l70.637-231.408a7.484 7.484 0 0 0 .321-2.381c.074-.216.137-.436.192-.656zM124.518 295.455c-5.566 5.567-12.969 8.633-20.841 8.633-7.873 0-15.275-3.065-20.842-8.633l-33.742-33.742c-5.566-5.566-8.632-12.968-8.632-20.841 0-7.872 3.065-15.274 8.633-20.841L245.493 23.633C251.059 18.065 258.461 15 266.334 15c7.872 0 15.274 3.065 20.841 8.633l33.741 33.741c11.492 11.492 11.492 30.19 0 41.683L124.518 295.455z"/><path d="M250.16 43.124a7.502 7.502 0 0 0-10.607 0L192.327 90.35a7.5 7.5 0 0 0 0 10.607l51.266 51.266c1.465 1.464 3.385 2.196 5.304 2.196s3.839-.732 5.304-2.196l47.226-47.226a7.5 7.5 0 0 0 0-10.607L250.16 43.124zm-1.264 93.189l-40.659-40.659 36.619-36.619 40.659 40.659-36.619 36.619zM181.245 112.04a7.502 7.502 0 0 0-10.607 0l-47.226 47.225a7.502 7.502 0 0 0 0 10.608l51.265 51.266a7.502 7.502 0 0 0 10.608 0l47.226-47.226a7.5 7.5 0 0 0 0-10.607l-51.266-51.266zm-1.265 93.188l-40.658-40.659 36.619-36.618 40.658 40.658-36.619 36.619zM112.329 180.955a7.502 7.502 0 0 0-10.607 0l-47.226 47.226a7.5 7.5 0 0 0 0 10.607l51.266 51.266c1.465 1.464 3.385 2.196 5.304 2.196s3.839-.732 5.304-2.196l47.226-47.226a7.5 7.5 0 0 0 0-10.607l-51.267-51.266zm-1.264 93.189l-40.659-40.659 36.619-36.619 40.659 40.659-36.619 36.619zM289.996 62.056c1.97 0 3.899-.8 5.3-2.199a7.534 7.534 0 0 0 2.2-5.301c0-1.97-.801-3.909-2.2-5.3a7.55 7.55 0 0 0-5.3-2.2 7.56 7.56 0 0 0-5.311 2.2 7.561 7.561 0 0 0-2.189 5.3c0 1.98.8 3.91 2.189 5.301a7.555 7.555 0 0 0 5.311 2.199z"/></g></symbol><symbol viewBox="0 0 8 5" id="scrollArrow" xmlns="http://www.w3.org/2000/svg"><path d="M3.805 4.511a.5.5 0 0 0 .707 0L7.694 1.33a.5.5 0 0 0-.707-.707L4.158 3.451 1.33.622a.5.5 0 0 0-.707.707l3.182 3.182zm-.147-.858v.505h1v-.505h-1z" fill="#000"/></symbol><symbol viewBox="0 0 52.966 52.966" id="search" xmlns="http://www.w3.org/2000/svg"><path d="M51.704 51.273L36.845 35.82c3.79-3.801 6.138-9.041 6.138-14.82 0-11.58-9.42-21-21-21s-21 9.42-21 21 9.42 21 21 21c5.083 0 9.748-1.817 13.384-4.832l14.895 15.491a.998.998 0 0 0 1.414.028 1 1 0 0 0 .028-1.414zM21.983 40c-10.477 0-19-8.523-19-19s8.523-19 19-19 19 8.523 19 19-8.524 19-19 19z"/></symbol><symbol viewBox="0 0 56.966 56.966" id="search_(1)" xmlns="http://www.w3.org/2000/svg"><path d="M55.146 51.887L41.588 37.786A22.926 22.926 0 0 0 46.984 23c0-12.682-10.318-23-23-23s-23 10.318-23 23 10.318 23 23 23c4.761 0 9.298-1.436 13.177-4.162l13.661 14.208c.571.593 1.339.92 2.162.92.779 0 1.518-.297 2.079-.837a3.004 3.004 0 0 0 .083-4.242zM23.984 6c9.374 0 17 7.626 17 17s-7.626 17-17 17-17-7.626-17-17 7.626-17 17-17z"/></symbol><symbol viewBox="0 1 511 512" id="shopping" xmlns="http://www.w3.org/2000/svg"><path d="M504.227 303.016a7.594 7.594 0 0 0 7.593-7.594V91.016c0-26.395-20.492-48.079-46.402-50.024C451.258 16.516 424.808 0 394.555 0c-30.188 0-56.594 16.445-70.774 40.832h-75.105c-11.403-14.68-29.203-24.152-49.188-24.152-34.336 0-62.27 27.933-62.27 62.265v18.227H98.16a7.59 7.59 0 0 0-7.55 6.808L65.495 345.656H15.687V91.016c0-19.297 15.7-34.993 34.993-34.993h77.902a7.595 7.595 0 0 0 7.594-7.597 7.594 7.594 0 0 0-7.594-7.594H50.68C23.012 40.832.5 63.344.5 91.016v267.293c0 27.925 22.715 50.644 50.637 50.644H73.98a7.594 7.594 0 0 0 0-15.188H51.137c-18.696 0-34.043-14.55-35.348-32.921h480.742c-1.304 18.37-16.656 32.922-35.355 32.922H99.293a7.594 7.594 0 0 0 0 15.187h60.879l-10.082 42.238h-21.004c-21.82 0-39.57 17.754-39.57 39.575v13.64A7.592 7.592 0 0 0 97.109 512h318.094a7.592 7.592 0 0 0 7.594-7.594v-13.64c0-21.82-17.75-39.575-39.57-39.575h-21.004l-10.082-42.238h109.035c27.926 0 50.644-22.719 50.644-50.644v-37.575a7.594 7.594 0 0 0-15.187 0v24.922H382.68l-17.223-161.36a7.59 7.59 0 0 0-7.55-6.788h-41.895l-7.645-73.531a7.59 7.59 0 0 0-7.55-6.805h-39.063V78.945c0-8.093-1.57-15.824-4.39-22.925h59.554a81.566 81.566 0 0 0-4.191 25.808c0 45.121 36.707 81.828 81.828 81.828 45.117 0 81.828-36.707 81.828-81.828 0-8.34-1.262-16.387-3.59-23.973 13.844 4.668 23.84 17.766 23.84 33.157v204.406a7.595 7.595 0 0 0 7.594 7.598zm-96.618 187.75v6.046H104.703v-6.046c0-13.446 10.938-24.387 24.383-24.387h254.14c13.446 0 24.383 10.941 24.383 24.387zm-61-39.575H165.703l10.082-42.238h160.742zm20.797-105.539H207.543l16.324-152.957h127.211zM293.97 112.36l6.773 65.149H217.04a7.599 7.599 0 0 0-7.55 6.789l-17.223 161.355h-111.5l24.238-233.293h32.215v16.7c0 4.195 3.398 7.593 7.594 7.593s7.593-3.398 7.593-7.593v-16.7h94.16v16.7a7.592 7.592 0 0 0 7.594 7.593 7.592 7.592 0 0 0 7.594-7.593v-16.7zm-47.403-33.414v18.227H152.41V78.945c0-25.96 21.117-47.078 47.078-47.078 10.301 0 19.832 3.332 27.59 8.965h-46.855a7.594 7.594 0 0 0-7.594 7.594 7.595 7.595 0 0 0 7.594 7.597h60.363a46.734 46.734 0 0 1 5.98 22.922zm147.989 69.524c-36.746 0-66.64-29.895-66.64-66.64s29.894-66.641 66.64-66.641 66.64 29.894 66.64 66.64-29.894 66.64-66.64 66.64zm0 0"/><path d="M287.473 273.473c-13.817 0-25.059-11.239-25.059-25.059v-32.652a7.594 7.594 0 0 0-15.187 0v32.652c0 22.191 18.054 40.246 40.246 40.246s40.246-18.055 40.246-40.246v-32.652a7.594 7.594 0 0 0-15.188 0v32.652c0 13.82-11.238 25.059-25.058 25.059zm0 0M425.535 39.512c-3.777-1.832-8.32-.262-10.152 3.508l-29.055 59.777-13.164-23.692a7.592 7.592 0 0 0-10.324-2.953 7.597 7.597 0 0 0-2.953 10.328l20.25 36.45a7.601 7.601 0 0 0 6.64 3.906c.067 0 .137 0 .207-.004a7.584 7.584 0 0 0 6.621-4.27l35.438-72.902c1.836-3.77.262-8.316-3.508-10.148zm0 0M476.441 200.758h-72.898a7.594 7.594 0 0 0 0 15.187h72.898a7.594 7.594 0 0 0 0-15.188zm0 0M476.441 236.2h-57.71a7.592 7.592 0 0 0-7.594 7.593 7.592 7.592 0 0 0 7.593 7.594h57.711a7.592 7.592 0 0 0 7.594-7.594 7.592 7.592 0 0 0-7.594-7.594zm0 0"/></symbol><symbol viewBox="0 0 512 512" id="shopping_(1)" xmlns="http://www.w3.org/2000/svg"><path d="M462 386c5.52 0 10-4.48 10-10s-4.48-10-10-10-10 4.48-10 10 4.48 10 10 10zm0 0"/><path d="M30 512h452c16.543 0 30-13.457 30-30V110c0-5.523-4.477-10-10-10h-70C432 44.86 387.14 0 332 0c-55.258 0-100 44.7-100 100h-76c-5.523 0-10 4.477-10 10v116H10c-5.523 0-10 4.477-10 10v246c0 16.543 13.457 30 30 30zm-10-30v-36h232v36c0 5.516-4.484 10-10 10H30c-5.516 0-10-4.484-10-10zm462 10H270.281A29.86 29.86 0 0 0 272 482v-36h220v36c0 5.516-4.484 10-10 10zM332 20c44.113 0 80 35.887 80 80H252c0-44.21 35.762-80 80-80zM166 120h66v46h-10c-5.523 0-10 4.477-10 10s4.477 10 10 10h40c5.523 0 10-4.477 10-10s-4.477-10-10-10h-10v-46h160v46h-10c-5.523 0-10 4.477-10 10s4.477 10 10 10h40c5.523 0 10-4.477 10-10s-4.477-10-10-10h-10v-46h60v306H272V236c0-5.523-4.477-10-10-10h-96zm86 126v180H20V246zm0 0"/><path d="M76 306v20c0 33.148 26.852 60 60 60 33.086 0 60-26.914 60-60v-20c5.523 0 10-4.477 10-10s-4.477-10-10-10h-20c-5.523 0-10 4.477-10 10s4.477 10 10 10v20c0 22.055-17.945 40-40 40-22.094 0-40-17.906-40-40v-20c5.523 0 10-4.477 10-10s-4.477-10-10-10H76c-5.523 0-10 4.477-10 10s4.477 10 10 10zm0 0M462 346c5.523 0 10-4.477 10-10v-80c0-5.523-4.477-10-10-10s-10 4.477-10 10v80c0 5.523 4.477 10 10 10zm0 0"/></symbol><symbol viewBox="0 0 465 465" id="star" xmlns="http://www.w3.org/2000/svg"><path d="M114.277 164.39l53.699 44.779-17.111 67.743c-1.728 6.656.245 13.005 5.148 16.566 2.403 1.746 5.226 2.616 8.157 2.616 3.048 0 6.213-.94 9.146-2.813l26.841-16.886a7.5 7.5 0 0 0 2.354-10.343 7.496 7.496 0 0 0-10.342-2.354l-26.748 16.828 18.252-72.26a7.498 7.498 0 0 0-2.468-7.597l-57.239-47.731 74.363-4.97a7.499 7.499 0 0 0 6.462-4.695L232.5 74.086l27.706 69.188a7.499 7.499 0 0 0 6.463 4.695l74.364 4.97-57.24 47.731a7.5 7.5 0 0 0-2.468 7.597l18.251 72.26-63.082-39.688a7.504 7.504 0 0 0-7.988 0l-11.335 7.131a7.5 7.5 0 0 0 7.988 12.697l7.341-4.619 59.141 37.208c5.796 3.698 12.441 3.783 17.347.223 4.902-3.563 6.875-9.91 5.159-16.519l-17.123-67.791 53.662-44.748c5.31-4.369 7.444-10.665 5.572-16.425-1.871-5.766-7.299-9.604-14.116-10.016l-69.765-4.663-25.975-64.864c-2.515-6.399-7.842-10.375-13.902-10.375-6.061 0-11.388 3.976-13.884 10.33l-25.994 64.909-69.715 4.66c-6.865.414-12.292 4.252-14.164 10.015-1.873 5.765.262 12.06 5.534 16.398z"/><path d="M414.886 0H50.114a7.5 7.5 0 0 0-7.5 7.5v450a7.5 7.5 0 0 0 11.494 6.348L232.5 351.615l178.391 112.233a7.5 7.5 0 0 0 11.494-6.349V7.5a7.498 7.498 0 0 0-7.499-7.5zm-7.5 443.921L236.494 336.406a7.504 7.504 0 0 0-7.987 0L57.614 443.921V15h349.771v428.921z"/></symbol><symbol viewBox="0 0 512 512" id="tick" xmlns="http://www.w3.org/2000/svg"><path d="M504.502 75.496c-9.997-9.998-26.205-9.998-36.204 0L161.594 382.203 43.702 264.311c-9.997-9.998-26.205-9.997-36.204 0-9.998 9.997-9.998 26.205 0 36.203l135.994 135.992c9.994 9.997 26.214 9.99 36.204 0L504.502 111.7c9.998-9.997 9.997-26.206 0-36.204z"/></symbol><symbol viewBox="0 0 300 300" id="travel" xmlns="http://www.w3.org/2000/svg"><path d="M99.41 95.701l-3.415-12.779a191.492 191.492 0 0 0-21.841 7.277l4.929 12.274a178.713 178.713 0 0 1 20.327-6.772zM59.714 111.641l-6.364-11.595a192.843 192.843 0 0 0-19.482 12.274l7.711 10.746a179.924 179.924 0 0 1 18.135-11.425zM0 143.421l10.054 8.593a177.975 177.975 0 0 1 14.888-15.422l-8.943-9.743A190.798 190.798 0 0 0 0 143.421zM285.464 138.098l-9.739 8.947a179.448 179.448 0 0 1 13.528 16.632L300 155.966a191.943 191.943 0 0 0-14.536-17.868zM243.18 119.253a177.92 177.92 0 0 1 17.115 12.909l8.588-10.058a189.92 189.92 0 0 0-18.398-13.874l-7.305 11.023zM230.536 96.687a191.219 191.219 0 0 0-21.186-9.029l-4.44 12.459a177.209 177.209 0 0 1 19.714 8.401l5.912-11.831zM110.915 105.603l8.989.004 7.493-11.363 14.428.099-9.084 31.32v.741c0 3.955 3.218 7.175 7.173 7.175h13.032l20.681-38.354 15.984.529c8.273 0 15.005-6.492 15.005-14.467.004-3.919-1.594-7.59-4.497-10.334-2.817-2.663-6.545-4.133-10.665-4.133h-.013l-15.951.533-20.54-38.091-13.054-.004c-3.946.011-7.155 3.232-7.155 7.177v.738l9.011 31.07-14.489.126L119.9 57.23l-8.983.002c-3.69 0-6.69 3-6.69 6.688v34.996a6.692 6.692 0 0 0 6.688 6.687zm3.714-37.467h.004l7.067 10.691 33.877-.293-11.275-38.867h2.434l20.657 38.305 22.224-.743c1.281 0 2.471.459 3.353 1.29.8.756 1.239 1.737 1.239 2.766 0 2.242-2.063 4.063-4.424 4.065l-22.255-.736-20.796 38.559H144.3l11.35-39.138-33.83-.236-7.191 10.896V68.136zM171.305 156.619a118.576 118.576 0 0 0-26.309-2.974c-55.362 0-102.633 37.756-114.949 91.814a118.397 118.397 0 0 0-2.943 25.282h13.228c.057-5.262.5-10.546 1.36-15.818 7.438 1.907 15.1 4.966 17.562 6.975a141.01 141.01 0 0 1-.381 2.588c-.298 1.929-.619 4.063-.752 6.256h13.27c.139-1.499.375-3.079.553-4.241.245-1.594.487-3.181.639-4.715.822-8.306-8.597-14.948-27.96-19.76 10.651-36.33 39.447-63.355 75.16-72.107-1.968 3.805-3.553 8.513-4.215 14.469-.322 2.919-.741 5.555-1.109 7.876-1.481 9.36-3.013 19.039 9.644 24.673 7.098 3.17 12.064 3.695 16.052 4.111 1.94.203 3.65.384 5.467.849.641 2.149.317 7.4.187 9.499-.165 2.665-.333 5.385.481 7.607.809 4.541 4.166 18.924 15.305 31.734H181.5c-19.134-12.492-22.182-33.848-22.308-34.787l-.271-2.178c.026-.516.06-1.08.09-1.563.425-6.884 1.219-19.705-8.595-22.703-3.39-1.034-6.304-1.338-8.875-1.609-3.686-.388-6.867-.723-12.051-3.035-3.393-1.512-3.393-1.512-1.966-10.528.39-2.467.833-5.266 1.188-8.493 1.01-9.106 4.847-14.877 8.313-18.658 2.634-.196 5.29-.315 7.971-.315 7.814 0 15.677.888 23.373 2.641 27.292 6.218 50.531 22.689 65.43 46.378 10.098 16.057 15.532 34.128 16.059 52.605-1.1.721-2.469 1.481-3.941 2.246h17.174c-.123-21.726-6.241-43.04-18.096-61.89-16.782-26.676-42.952-45.226-73.69-52.229z"/></symbol><symbol viewBox="0 0 512 512" id="tray" xmlns="http://www.w3.org/2000/svg"><path d="M456.354 334.396a28.223 28.223 0 0 0-1.536-2.321c-5.171-7.228-12.86-12.006-21.632-13.449a33.072 33.072 0 0 0-24.781 5.786l-95.403 68.122h-99.669c-4.702 0-8.533-3.823-8.533-8.533s3.831-8.533 8.533-8.533H268.8c16.469 0 29.867-13.397 29.867-29.867 0-.094-.009-.879-.017-.964-.529-16.461-14.413-29.295-30.532-28.902h-111.01a42.822 42.822 0 0 0-26.974 9.907l-41.728 34.731a8.558 8.558 0 0 0-3.072 6.562v102.4a8.53 8.53 0 0 0 8.533 8.533h211.721a59.872 59.872 0 0 0 38.025-13.73l103.45-85.478c14.053-10.012 18.132-29.45 9.291-44.264zm-19.669 30.737L332.74 450.987a42.82 42.82 0 0 1-27.162 9.813H102.4v-89.865l38.664-32.188c4.54-3.78 10.283-5.897 16.12-5.948l111.206-.008c7.074-.009 12.979 5.342 13.21 12.809 0 7.057-5.743 12.8-12.8 12.8h-55.467c-14.114 0-25.6 11.486-25.6 25.6s11.486 25.6 25.6 25.6h102.4a8.646 8.646 0 0 0 4.975-1.587l97.638-69.726c3.516-2.526 7.791-3.507 12.075-2.825 4.275.708 8.013 3.029 10.581 6.613.256.35.486.708.708 1.075 4.319 7.229 2.313 16.726-5.025 21.983z"/><path d="M93.611 349.867H0v17.067h85.077v128H0V512h93.611a8.53 8.53 0 0 0 8.533-8.533V358.4a8.53 8.53 0 0 0-8.533-8.533z"/><path d="M42.667 426.667c-14.114 0-25.6 11.486-25.6 25.6s11.486 25.6 25.6 25.6 25.6-11.486 25.6-25.6-11.486-25.6-25.6-25.6zm0 34.133c-4.702 0-8.533-3.823-8.533-8.533 0-4.71 3.831-8.533 8.533-8.533s8.533 3.823 8.533 8.533c0 4.71-3.831 8.533-8.533 8.533zM503.467 264.533H8.533A8.53 8.53 0 0 0 0 273.066c0 32.93 26.795 59.733 59.733 59.733h392.533c32.93 0 59.733-26.803 59.733-59.733a8.524 8.524 0 0 0-8.532-8.533zm-51.2 51.2H59.733c-20.608 0-37.845-14.686-41.805-34.133h476.143c-3.959 19.447-21.196 34.133-41.804 34.133z"/><path d="M256 42.667c-122.334 0-221.867 99.533-221.867 221.867v8.533a8.53 8.53 0 0 0 8.533 8.533h426.667a8.525 8.525 0 0 0 8.533-8.533v-8.533C477.867 142.199 378.342 42.667 256 42.667zM51.2 264.533c0-112.922 91.878-204.8 204.8-204.8s204.8 91.878 204.8 204.8H51.2z"/><path d="M115.644 140.006a190.753 190.753 0 0 0-16.435 21.342l14.225 9.429a174.385 174.385 0 0 1 14.967-19.439l-12.757-11.332zM256 76.8c-47.923.026-93.551 18.133-128.469 50.961l11.691 12.433c31.744-29.85 73.224-46.302 116.787-46.327L256 76.8zM230.4 0h51.2v17.067h-51.2z"/><path d="M247.467 8.533h17.067V51.2h-17.067z"/></symbol><symbol viewBox="0 0 512 512" id="ui" xmlns="http://www.w3.org/2000/svg"><path d="M360 104h-80a8 8 0 0 0-8 8v80a8 8 0 0 0 8 8h80a8 8 0 0 0 8-8v-80a8 8 0 0 0-8-8zm-72 80v-52.693L340.693 184H288zm64-11.32L299.32 120H352v52.68zM360 216h-80a8 8 0 0 0-8 8v80a8 8 0 0 0 8 8h80a8 8 0 0 0 8-8v-80a8 8 0 0 0-8-8zm-72 80v-52.685L340.685 296H288zm64-11.312L299.312 232H352v52.688zM272 328h64v16h-64zM352 328h16v16h-16zM272 360h96v16h-96zM272 392h96v16h-96zM136 184h80v16h-80zM136 248h80v16h-80zM136 312h80v16h-80z"/><path d="M464 56a8 8 0 0 0-8 8v32h-48V16c0-8.837-7.163-16-16-16H120c-8.837 0-16 7.163-16 16v80H56V64a8 8 0 0 0-8-8c-.48 0-48 .728-48 64v312c0 30.504 30.4 44.632 46.4 47.84a7.412 7.412 0 0 0 1.6.16h56v16c0 8.837 7.163 16 16 16h272c8.837 0 16-7.163 16-16v-16h56a7.412 7.412 0 0 0 1.6-.16c16-3.208 46.4-17.336 46.4-47.84V120c0-63.272-47.52-64-48-64zM16 120c0-32.64 14.4-43.088 24-46.4v312.232a70.235 70.235 0 0 0-24 13V120zm88 344H48.88C44.104 462.856 16 455.128 16 432c0-24.96 32.248-31.88 33.6-32.16A8 8 0 0 0 56 392V112h48v352zm16-376h92.12L120 145.543V88zm112 6.447V152h-92.136L232 94.447zM120 168h112v48H120v-48zm0 64h112v48H120v-48zm0 64h112v48H120v-48zm0 64h94.186L120 424.724V360zm112 7.172V432h-94.337L232 367.172zM392 496H120v-48h272v48zm0-64H248V88h144v344zm0-360H120V16h272v56zm71.136 392H408V112h48v280a8 8 0 0 0 6.4 7.84c.368.072 33.6 7.008 33.6 32.16 0 23.256-27.928 30.84-32.864 32zM496 398.832a70.235 70.235 0 0 0-24-13V73.6c9.496 3.32 24 13.776 24 46.4v278.832z"/><path d="M200 40h64v16h-64zM280 40h16v16h-16zM312 40h16v16h-16z"/></symbol><symbol viewBox="0 0 511.999 511.999" id="view" xmlns="http://www.w3.org/2000/svg"><path d="M508.745 246.041c-4.574-6.257-113.557-153.206-252.748-153.206S7.818 239.784 3.249 246.035a16.896 16.896 0 0 0 0 19.923c4.569 6.257 113.557 153.206 252.748 153.206s248.174-146.95 252.748-153.201a16.875 16.875 0 0 0 0-19.922zM255.997 385.406c-102.529 0-191.33-97.533-217.617-129.418 26.253-31.913 114.868-129.395 217.617-129.395 102.524 0 191.319 97.516 217.617 129.418-26.253 31.912-114.868 129.395-217.617 129.395z"/><path d="M255.997 154.725c-55.842 0-101.275 45.433-101.275 101.275s45.433 101.275 101.275 101.275S357.272 311.842 357.272 256s-45.433-101.275-101.275-101.275zm0 168.791c-37.23 0-67.516-30.287-67.516-67.516s30.287-67.516 67.516-67.516 67.516 30.287 67.516 67.516-30.286 67.516-67.516 67.516z"/></symbol><symbol viewBox="0 0 90 90" id="youtube-play-button" xmlns="http://www.w3.org/2000/svg"><path d="M90 26.958C90 19.525 83.979 13.5 76.55 13.5h-63.1C6.021 13.5 0 19.525 0 26.958v36.084C0 70.475 6.021 76.5 13.45 76.5h63.1C83.979 76.5 90 70.475 90 63.042V26.958zM36 60.225V26.33l25.702 16.947L36 60.225z"/></symbol><symbol viewBox="0 0 64 64" id="geolocal" xmlns="http://www.w3.org/2000/svg"><path d="M32 0C14.328 0 0 14.327 0 32c0 17.673 14.328 32 32 32s32-14.327 32-32C64 14.327 49.673 0 32 0zm0 62C15.432 62 2 48.568 2 32 2 15.432 15.432 2 32 2c16.568 0 30 13.432 30 30 0 16.568-13.432 30-30 30z"/><path d="M32 23a4 4 0 1 0 0 8 4 4 0 0 0 0-8zm0 6a2 2 0 1 1 .001-4.001A2 2 0 0 1 32 29zm0-13c-6.075 0-11 4.925-11 11s7.322 23 11 23 11-16.925 11-23c0-6.075-4.924-11-11-11zm0 32c-3.454 0-9-16.029-9-21a9 9 0 0 1 9-9 9 9 0 0 1 9 9c0 4.971-5.545 21-9 21z"/></symbol><symbol fill="none" viewBox="0 0 64 64" id="online-shop" xmlns="http://www.w3.org/2000/svg"><g clip-path="url(#aclip0)" fill="#EF002F"><path d="M42.62 39.748a1.954 1.954 0 0 1 1.412.635l10.654 11.541 1.566-1.448-7.21-7.81h.025v-28.8a5.34 5.34 0 0 0-5.334-5.333h-4.266v2.133h4.266a3.2 3.2 0 0 1 3.2 3.2v1.067h-7.466v2.134h7.466v23.316l-1.335-1.45a4.07 4.07 0 0 0-2.931-1.317 3.946 3.946 0 0 0-.847.054l.82-3.279.86-3.458h1.3V28.8h-2.133c-.49 0-.916.333-1.035.808l-.864 3.458H24.533a1.067 1.067 0 0 0-1.034 1.325l2.133 8.534c.119.475.545.808 1.035.808h12.337c.142.257.31.498.504.72l.837.94c-.197.293-.525.47-.878.474H25.6V48h13.867a3.2 3.2 0 0 0 2.308-.998l3.965 4.46a10.851 10.851 0 0 0 1.026 8.196 3.19 3.19 0 0 1-3.033 2.209H22.4a3.2 3.2 0 0 1-3.2-3.2V57.6h24.533v-2.133H19.2V25.6h-2.133v33.066A5.34 5.34 0 0 0 22.4 64h21.333a5.333 5.333 0 0 0 4.427-2.358c.354.391.735.758 1.14 1.096l1.217 1.016 1.366-1.641-1.216-1.014a8.767 8.767 0 0 1-2.721-9.562c.12-.361.04-.76-.214-1.045l-6.627-7.456a1.979 1.979 0 0 1 .08-2.71 2.09 2.09 0 0 1 1.436-.578zm-16.187-2.415L25.9 35.2h3.025l.267 2.133h-2.759zM27.5 41.6l-.534-2.133h2.492l.267 2.133H27.5zm6.758 0h-2.383l-.266-2.133h2.916l-.267 2.133zm.534-4.267h-3.45l-.267-2.133h3.983l-.266 2.133zm3.68 4.267H36.41l.266-2.133h2.472a4.104 4.104 0 0 0-.674 2.133zm1.228-4.267h-2.758l.267-2.133h3.025l-.534 2.133z"/><path d="M27.733 53.333a2.133 2.133 0 1 0 0-4.267 2.133 2.133 0 0 0 0 4.267zM38.4 53.333a2.133 2.133 0 1 0 0-4.267 2.133 2.133 0 0 0 0 4.267zM33.067 0H5.333a4.267 4.267 0 0 0-4.266 4.267V19.2a4.267 4.267 0 0 0 4.266 4.267h27.734a4.267 4.267 0 0 0 4.266-4.267V4.267A4.267 4.267 0 0 0 33.067 0zM35.2 19.2a2.133 2.133 0 0 1-2.133 2.133H5.333A2.133 2.133 0 0 1 3.2 19.2V4.267c0-1.179.955-2.134 2.133-2.134h27.734c1.178 0 2.133.955 2.133 2.134V19.2z"/><path d="M24.533 5.333h-19.2v2.133h19.2V5.333zM31.502 12.176a3.2 3.2 0 0 0-3.244 0 3.157 3.157 0 0 0-1.591-.443 3.2 3.2 0 1 0 0 6.4 3.158 3.158 0 0 0 1.591-.44 3.2 3.2 0 0 0 3.244-5.517zM26.667 16a1.067 1.067 0 1 1 0-2.133 1.067 1.067 0 0 1 0 2.133zm3.2 0a1.037 1.037 0 0 1-.19-.027 2.964 2.964 0 0 0 0-2.079c.063-.014.126-.024.19-.027a1.067 1.067 0 0 1 0 2.133zM7.467 11.733H5.333v2.134h2.134v-2.134zM11.733 11.733H9.6v2.134h2.133v-2.134zM16 11.733h-2.133v2.134H16v-2.134zM20.267 11.733h-2.134v2.134h2.134v-2.134zM20.267 16H5.333v2.133h14.934V16zM60.947 41.173l-8.96-9.892-1.58 1.432 8.965 9.902a5.316 5.316 0 0 1 1.428 3.632V64h2.133V46.247a7.425 7.425 0 0 0-1.986-5.074zM35.675 26.846l-1.542 1.027V25.6H32v2.273l-1.541-1.027-1.184 1.774 3.2 2.134c.358.239.825.239 1.183 0l3.2-2.134-1.183-1.774z"/></g><defs><clipPath id="aclip0"><path fill="#fff" d="M0 0h64v64H0z"/></clipPath></defs></symbol></svg>